<svg viewBox="0 0 72 72" xmlns="http://www.w3.org/2000/svg" xml:space="preserve" style="fill-rule:evenodd;clip-rule:evenodd;stroke-linejoin:round;stroke-miterlimit:2"><circle cx="36" cy="36" r="36" style="fill:#222" transform="matrix(.77778 0 0 .77778 8 8)"/><circle cx="36" cy="36" r="36" style="fill:#444" transform="matrix(.30556 0 0 .30556 25 25)"/><path d="M36 0c19.869 0 36 16.131 36 36S55.869 72 36 72 0 55.869 0 36 16.131 0 36 0Zm0 6.857c16.084 0 29.143 13.059 29.143 29.143 0 16.084-13.059 29.143-29.143 29.143C19.916 65.143 6.857 52.084 6.857 36 6.857 19.916 19.916 6.857 36 6.857Z" style="fill:#444" transform="matrix(.58333 0 0 .58333 15 15)"/><path d="M36 0c19.869 0 36 16.131 36 36S55.869 72 36 72 0 55.869 0 36 16.131 0 36 0Zm0 4.8c17.22 0 31.2 13.98 31.2 31.2S53.22 67.2 36 67.2 4.8 53.22 4.8 36 18.78 4.8 36 4.8Z" style="fill:#444" transform="matrix(.83333 0 0 .83333 6 6)"/><path d="M76.5 0h304c5.795 0 10.5 4.705 10.5 10.5 0 3.926-2.16 7.352-5.354 9.153-3.596 3.249-9.622 8.546-16.137 14.165-9.905 8.543-28.846 26.366-42.09 39.607-32.752 32.743-48.913 52.985-59.013 73.917-6.809 14.109-7.38 18.335-7.316 54.158l.055 31s10.92-31.67 16.229-39c12.425-17.151 30.422-29.681 51.337-35.742 10.509-3.045 36-3.258 46.631-.391 35.915 9.688 62.238 38.106 68.607 74.067.677 3.823 1.051 34.8 1.051 87.119 0 68.405-.241 82.583-1.533 90.066-9.037 52.365-49.218 92.829-101.177 101.89-10.911 1.902-32.588 1.916-43.419.028-24.985-4.357-47.483-16.134-65.931-34.513-17.411-17.344-28.309-37.274-34.19-62.524-1.998-8.581-2.114-12.228-2.485-78.25l-.388-69.25h-72.541l-25.561 11.224-9.896-.398c-14.962-.601-14.379.492-14.379-26.942 0-27.353-.903-25.884 15.914-25.884h11.192l23.202 10H196v-33.79c0-27.208-.3-34.942-1.541-39.706-7.347-28.208-47.208-75.444-107.329-127.187-7.477-6.435-12.177-10.487-15.131-13.329C68.453 18.301 66 14.685 66 10.5 66 4.705 70.705 0 76.5 0Zm332.699 366.482c-3.536 10.789-9.516 20.038-19.156 29.628-7.145 7.109-10.3 9.418-18.098 13.249-13.8 6.778-19.874 8.143-35.945 8.074-12.271-.053-30.824-5.995-30.824-5.995l1.944 2.731c5.966 8.378 21.911 17.723 34.88 20.441 13.409 2.81 28.86-.076 41.696-7.789 7.399-4.447 18.133-16.088 22.076-23.942 4.996-9.952 6.331-16.849 6.009-31.041l-.281-12.374-2.301 7.018ZM293 332.951c0 6.573.506 14.335 1.124 17.25 2.316 10.915 9.164 21.141 18.152 27.107 13.383 8.882 28.916 10.167 42.784 3.538 12.927-6.179 22.42-18.261 24.935-31.732C380.548 346.151 381 321 381 321h-12.807l-.346 9.589c-.313 8.654-.578 9.776-2.708 11.5-2.655 2.149-7.831 2.468-10.226.629-2.968-2.279-3.913-5.575-3.913-13.652V321h-6v9.045c0 8.271-.21 9.256-2.455 11.5-3.036 3.037-7.344 3.188-10.91.382-2.514-1.977-2.635-2.506-2.635-11.5V321h-5.755l-.437 9.142c-.405 8.467-.64 9.317-3.179 11.5-3.601 3.098-8.018 3.06-11.174-.097-2.245-2.244-2.455-3.229-2.455-11.5V321h-13v11.951Zm34.459-91.556c-15.822 3.844-28.914 16.597-32.917 32.065C293.56 277.258 293 304 293 304h13v-9.865c0-8.466.294-10.239 2.073-12.5 1.532-1.948 2.983-2.635 5.565-2.635 7.394 0 9.362 3.5 9.362 16.649V304h6v-10.5c0-9.167.254-10.754 2-12.5 2.862-2.862 8.995-2.699 11.826.314 1.938 2.064 2.174 3.419 2.174 12.5V304h5.818l.341-10.59c.313-9.713.537-10.748 2.702-12.5 3.593-2.907 9.488-2.553 12.066.725 1.779 2.261 2.073 4.034 2.073 12.5V304h13s-.51-25.286-1.134-28.201c-2.853-13.33-11.418-24.509-23.208-30.291-10.85-5.321-19.318-6.514-29.199-4.113Zm17.411-53.35c-15.876 2.405-31.914 12.154-40.787 24.791l-2.342 3.337 4.21-2.148c11.473-5.853 34.619-7.939 48.985-4.415 25.501 6.256 45.903 25.047 54.684 50.364l2.263 6.526.058-14.04c.04-9.376-.435-15.936-1.428-19.749-3.554-13.643-13.461-27.5-25.265-35.334-11.102-7.37-27.822-11.234-40.378-9.332Z" style="fill:#fecc3c" transform="scale(.10937) rotate(45 204.28 380.863)"/></svg>